<svg xmlns="http://www.w3.org/2000/svg" width="18" height="25" viewBox="0 0 18 25" fill="none"><g id="Group"><path id="Vector" d="M8.41495 24.1869C8.54536 24.3825 8.76492 24.5 9 24.5C9.23508 24.5 9.45464 24.3825 9.58505 24.1869C11.2491 21.6909 13.7 18.6084 15.408 15.4733C16.7736 12.9666 17.4375 10.8287 17.4375 8.9375C17.4375 4.28506 13.6524 0.5 9 0.5C4.34756 0.5 0.5625 4.28506 0.5625 8.9375C0.5625 10.8287 1.22639 12.9666 2.59205 15.4733C4.29872 18.606 6.75436 21.6961 8.41495 24.1869ZM9 1.90625C12.877 1.90625 16.0312 5.06047 16.0312 8.9375C16.0312 10.5877 15.4234 12.5055 14.1731 14.8006C12.7009 17.5029 10.6 20.2441 9 22.5485C7.4002 20.2444 5.29922 17.503 3.82692 14.8006C2.57658 12.5055 1.96875 10.5877 1.96875 8.9375C1.96875 5.06047 5.12297 1.90625 9 1.90625Z" fill="#181F2F"/><path id="Vector_2" d="M9 13.1562C11.3262 13.1562 13.2188 11.2637 13.2188 8.9375C13.2188 6.61128 11.3262 4.71875 9 4.71875C6.67378 4.71875 4.78125 6.61128 4.78125 8.9375C4.78125 11.2637 6.67378 13.1562 9 13.1562ZM9 6.125C10.5508 6.125 11.8125 7.38669 11.8125 8.9375C11.8125 10.4883 10.5508 11.75 9 11.75C7.44919 11.75 6.1875 10.4883 6.1875 8.9375C6.1875 7.38669 7.44919 6.125 9 6.125Z" fill="#181F2F"/></g></svg>