<svg width="43" height="43" viewBox="0 0 43 43" fill="none" xmlns="http://www.w3.org/2000/svg">
<g id="icon">
<path id="Vector" d="M25.3898 19.9992L18.2179 17.9008C17.3878 17.6617 16.8101 16.8848 16.8101 16.0215C16.8101 14.9391 17.6866 14.0625 18.7691 14.0625H23.1718C23.982 14.0625 24.7788 14.3082 25.4429 14.7598C25.848 15.032 26.3925 14.9656 26.7378 14.627L29.0488 12.3691C29.5202 11.9109 29.4538 11.1473 28.9292 10.7422C27.3023 9.46719 25.2702 8.75664 23.1851 8.75V5.5625C23.1851 4.97812 22.707 4.5 22.1226 4.5H19.9976C19.4132 4.5 18.9351 4.97812 18.9351 5.5625V8.75H18.7691C14.539 8.75 11.139 12.3824 11.5308 16.6922C11.8097 19.7535 14.1472 22.2438 17.0956 23.107L23.9023 25.0992C24.7323 25.3449 25.3101 26.1152 25.3101 26.9785C25.3101 28.0609 24.4335 28.9375 23.3511 28.9375H18.9484C18.1382 28.9375 17.3413 28.6918 16.6773 28.2402C16.2722 27.968 15.7277 28.0344 15.3823 28.373L13.0714 30.6309C12.5999 31.0891 12.6663 31.8527 13.1909 32.2578C14.8179 33.5328 16.8499 34.2434 18.9351 34.25V37.4375C18.9351 38.0219 19.4132 38.5 19.9976 38.5H22.1226C22.707 38.5 23.1851 38.0219 23.1851 37.4375V34.2367C26.2796 34.177 29.1816 32.3375 30.2042 29.409C31.632 25.3184 29.2347 21.1215 25.3898 19.9992Z" fill="white"/>
</g>
</svg>
