<svg width="43" height="43" viewBox="0 0 43 43" fill="none" xmlns="http://www.w3.org/2000/svg">
<g id="icon">
<path id="Vector" d="M21.375 38.5C23.7205 38.5 25.6231 36.5975 25.6231 34.25H17.127C17.127 36.5975 19.0296 38.5 21.375 38.5ZM35.6783 28.5583C34.3953 27.1797 31.9947 25.1059 31.9947 18.3125C31.9947 13.1527 28.3769 9.02227 23.4987 8.00891V6.625C23.4987 5.4516 22.5478 4.5 21.375 4.5C20.2023 4.5 19.2514 5.4516 19.2514 6.625V8.00891C14.3732 9.02227 10.7554 13.1527 10.7554 18.3125C10.7554 25.1059 8.35477 27.1797 7.0718 28.5583C6.67337 28.9866 6.49673 29.4986 6.50005 30C6.50735 31.0891 7.362 32.125 8.63169 32.125H34.1184C35.3881 32.125 36.2434 31.0891 36.25 30C36.2534 29.4986 36.0767 28.986 35.6783 28.5583Z" fill="white"/>
</g>
</svg>
