<svg width="43" height="43" viewBox="0 0 43 43" fill="none" xmlns="http://www.w3.org/2000/svg">
<g id="icon">
<path id="Vector" d="M39.686 19.375H37.727C37.1426 18.0469 36.2926 16.8715 35.2434 15.8887L36.4985 10.875H34.3735C32.4212 10.875 30.6946 11.7715 29.5258 13.1527C29.0212 13.0797 28.5231 13 27.9985 13H19.4985C14.3587 13 10.0755 16.6523 9.086 21.5H6.21725C5.23444 21.5 4.45749 20.6035 4.65671 19.5875C4.8028 18.8305 5.51335 18.3125 6.28366 18.3125H6.35007C6.56921 18.3125 6.7485 18.1332 6.7485 17.9141V16.5859C6.7485 16.3668 6.56921 16.1875 6.35007 16.1875C4.45749 16.1875 2.77077 17.5422 2.53171 19.4148C2.23952 21.6859 4.00592 23.625 6.21725 23.625H8.8735C8.8735 27.0914 10.5602 30.1395 13.1235 32.0785V37.4375C13.1235 38.0219 13.6016 38.5 14.186 38.5H18.436C19.0204 38.5 19.4985 38.0219 19.4985 37.4375V34.25H27.9985V37.4375C27.9985 38.0219 28.4766 38.5 29.061 38.5H33.311C33.8954 38.5 34.3735 38.0219 34.3735 37.4375V32.0785C35.1571 31.4875 35.8544 30.7902 36.452 30H39.686C40.2704 30 40.7485 29.5219 40.7485 28.9375V20.4375C40.7485 19.8531 40.2704 19.375 39.686 19.375ZM31.186 23.625C30.6016 23.625 30.1235 23.1469 30.1235 22.5625C30.1235 21.9781 30.6016 21.5 31.186 21.5C31.7704 21.5 32.2485 21.9781 32.2485 22.5625C32.2485 23.1469 31.7704 23.625 31.186 23.625ZM19.4985 10.875H27.9985C28.3571 10.875 28.709 10.9016 29.0544 10.9281C29.0544 10.9082 29.061 10.8949 29.061 10.875C29.061 7.35547 26.2055 4.5 22.686 4.5C19.1665 4.5 16.311 7.35547 16.311 10.875C16.311 11.0145 16.3442 11.1473 16.3508 11.2867C17.3602 11.0277 18.4094 10.875 19.4985 10.875Z" fill="white"/>
</g>
</svg>
