<svg width="43" height="43" viewBox="0 0 43 43" fill="none" xmlns="http://www.w3.org/2000/svg">
<g id="icon">
<path id="Vector" d="M16.756 21.892C16.9706 22.8215 15.9509 23.5279 15.1577 23.0321L12.4526 21.3417L9.0747 26.7473C8.19256 28.1587 9.21216 30 10.8758 30H14.3281C14.7682 30 15.125 30.3568 15.125 30.7969V33.4531C15.125 33.8932 14.7682 34.25 14.3281 34.25H10.8826C5.87996 34.25 2.82741 28.7351 5.47661 24.4962L8.8515 19.0916L6.14712 17.4017C5.34486 16.9005 5.55172 15.6777 6.47111 15.4654L13.7915 13.7754C14.3633 13.6434 14.9338 13.9999 15.0658 14.5716L16.756 21.892ZM23.301 9.74532L26.0429 14.1332L23.3375 15.8237C22.5372 16.3236 22.7398 17.5471 23.6615 17.7599L30.9819 19.45C31.5577 19.5827 32.1251 19.2217 32.2561 18.6538L33.9462 11.3334C34.1585 10.414 33.15 9.69186 32.3479 10.1933L29.646 11.8816L26.9059 7.49336C24.4143 3.5068 18.5913 3.49763 16.094 7.49336L14.9011 9.40359C14.668 9.7768 14.7816 10.2683 15.1548 10.5015L17.4072 11.909C17.7804 12.1422 18.2721 12.0287 18.5053 11.6555L19.698 9.74678C20.5422 8.39601 22.4853 8.44017 23.301 9.74532ZM37.5229 24.4962L35.6958 21.5701C35.4626 21.1967 34.9709 21.083 34.5975 21.3163L32.349 22.7214C31.9758 22.9546 31.8622 23.4462 32.0954 23.8195L33.9259 26.7488C34.8062 28.1573 33.7893 30 32.1239 30H25.7499V26.8138C25.7499 25.87 24.605 25.3939 23.9362 26.0626L18.6237 31.3738C18.2087 31.7887 18.2087 32.4615 18.6237 32.8764L23.9362 38.1881C24.6004 38.8524 25.7499 38.3871 25.7499 37.4367V34.25H32.117C37.1156 34.25 40.1743 28.7385 37.5229 24.4962Z" fill="white"/>
</g>
</svg>
