<svg width="43" height="43" viewBox="0 0 43 43" fill="none" xmlns="http://www.w3.org/2000/svg">
<g id="icon">
<path id="Vector" d="M7.5 19.5C9.70625 19.5 11.5 17.7063 11.5 15.5C11.5 13.2937 9.70625 11.5 7.5 11.5C5.29375 11.5 3.5 13.2937 3.5 15.5C3.5 17.7063 5.29375 19.5 7.5 19.5ZM35.5 19.5C37.7062 19.5 39.5 17.7063 39.5 15.5C39.5 13.2937 37.7062 11.5 35.5 11.5C33.2938 11.5 31.5 13.2937 31.5 15.5C31.5 17.7063 33.2938 19.5 35.5 19.5ZM37.5 21.5H33.5C32.4 21.5 31.4062 21.9438 30.6812 22.6625C33.2 24.0438 34.9875 26.5375 35.375 29.5H39.5C40.6063 29.5 41.5 28.6063 41.5 27.5V25.5C41.5 23.2937 39.7062 21.5 37.5 21.5ZM21.5 21.5C25.3687 21.5 28.5 18.3687 28.5 14.5C28.5 10.6312 25.3687 7.5 21.5 7.5C17.6313 7.5 14.5 10.6312 14.5 14.5C14.5 18.3687 17.6313 21.5 21.5 21.5ZM26.3 23.5H25.7812C24.4813 24.125 23.0375 24.5 21.5 24.5C19.9625 24.5 18.525 24.125 17.2188 23.5H16.7C12.725 23.5 9.5 26.725 9.5 30.7V32.5C9.5 34.1562 10.8438 35.5 12.5 35.5H30.5C32.1562 35.5 33.5 34.1562 33.5 32.5V30.7C33.5 26.725 30.275 23.5 26.3 23.5ZM12.3188 22.6625C11.5938 21.9438 10.6 21.5 9.5 21.5H5.5C3.29375 21.5 1.5 23.2937 1.5 25.5V27.5C1.5 28.6063 2.39375 29.5 3.5 29.5H7.61875C8.0125 26.5375 9.8 24.0438 12.3188 22.6625Z" fill="white"/>
</g>
</svg>
