<svg width="24" height="24" viewBox="0 0 24 24" fill="none" xmlns="http://www.w3.org/2000/svg">
<g id="Group">
<path id="Vector" d="M12 9.1875C11.4822 9.1875 11.0625 9.60722 11.0625 10.125V12C11.0625 12.5178 11.4822 12.9375 12 12.9375H13.875C14.3928 12.9375 14.8125 12.5178 14.8125 12C14.8125 11.4822 14.3928 11.0625 13.875 11.0625H12.9375V10.125C12.9375 9.60722 12.5178 9.1875 12 9.1875Z" fill="#181F2F"/>
<path id="Vector_2" d="M9.1875 2.8125C9.1875 2.29556 9.60806 1.875 10.125 1.875H13.875C14.3919 1.875 14.8125 2.29556 14.8125 2.8125C14.8125 3.33028 15.2322 3.75 15.75 3.75C16.2678 3.75 16.6875 3.33028 16.6875 2.8125C16.6875 1.26169 15.4258 0 13.875 0H10.125C8.57419 0 7.3125 1.26169 7.3125 2.8125C7.3125 3.33028 7.73222 3.75 8.25 3.75C8.76778 3.75 9.1875 3.33028 9.1875 2.8125Z" fill="#181F2F"/>
<path id="Vector_3" d="M21.1875 5.4375H2.8125C1.26169 5.4375 0 6.69919 0 8.25V12C0 14.5847 2.10277 16.6875 4.6875 16.6875H19.3125C21.8972 16.6875 24 14.5847 24 12V8.25C24 6.69919 22.7383 5.4375 21.1875 5.4375ZM22.125 12C22.125 13.5508 20.8633 14.8125 19.3125 14.8125H4.6875C3.13669 14.8125 1.875 13.5508 1.875 12V8.25C1.875 7.73306 2.29556 7.3125 2.8125 7.3125H21.1875C21.7044 7.3125 22.125 7.73306 22.125 8.25V12Z" fill="#181F2F"/>
<path id="Vector_4" d="M2.625 18.1377C2.10722 18.1377 1.6875 18.5574 1.6875 19.0752V21.1875C1.6875 22.7383 2.94919 24 4.5 24H19.5C21.0508 24 22.3125 22.7383 22.3125 21.1875V19.0752C22.3125 18.5574 21.8928 18.1377 21.375 18.1377C20.8572 18.1377 20.4375 18.5574 20.4375 19.0752V21.1875C20.4375 21.7044 20.0169 22.125 19.5 22.125H4.5C3.98306 22.125 3.5625 21.7044 3.5625 21.1875V19.0752C3.5625 18.5574 3.14278 18.1377 2.625 18.1377Z" fill="#181F2F"/>
</g>
</svg>
