<svg xmlns="http://www.w3.org/2000/svg" width="76" height="76" viewBox="0 0 76 76" fill="none"><g id="Group"><path id="Vector" d="M58.563 23.0699L75.3344 15.8821L38.5215 0L5.11896 14.4109V31.8463C2.52707 32.7655 0.665283 35.2407 0.665283 38.1438V49.278H5.11896V76H71.924V31.4633H58.563V23.0699ZM22.9336 24.9786L38.5215 31.6591L54.1094 24.9786V34.2772L38.5215 40.9576L22.9336 34.2772V24.9786ZM38.5215 4.8505L64.0601 15.8686L38.5215 26.8136L12.983 15.8686L38.5215 4.8505ZM9.57263 19.2525L18.48 23.0699V31.4633H9.57263V19.2525ZM5.11896 38.1438C5.11896 36.9159 6.11791 35.9169 7.34579 35.9169C8.57367 35.9169 9.57263 36.9159 9.57263 38.1438V44.8243H5.11896V38.1438ZM67.4704 35.9169V71.5463H9.57263V49.278H14.0263V38.1438C14.0263 37.3632 13.8905 36.6139 13.6433 35.9169H18.48V37.2141L38.5215 45.8031L58.563 37.214V35.9169H67.4704Z" fill="url(#paint0_linear_864_330)"/><path id="Vector_2" d="M18.48 49.278V62.639H52.4082L65.7692 55.9585L52.4082 49.278H18.48ZM22.9337 53.7316H27.3873V58.1853H22.9337V53.7316ZM51.3568 58.1853H31.841V53.7316H51.3568L55.8105 55.9585L51.3568 58.1853Z" fill="url(#paint1_linear_864_330)"/></g><defs><linearGradient id="paint0_linear_864_330" x1="0.665283" y1="0" x2="76.6534" y2="74.6574" gradientUnits="userSpaceOnUse"><stop stop-color="#1BB69D"/><stop offset="1" stop-color="#2DB87F"/></linearGradient><linearGradient id="paint1_linear_864_330" x1="18.48" y1="49.278" x2="25.4718" y2="74.0245" gradientUnits="userSpaceOnUse"><stop stop-color="#1BB69D"/><stop offset="1" stop-color="#2DB87F"/></linearGradient></defs></svg>