<svg xmlns="http://www.w3.org/2000/svg" width="76" height="76" viewBox="0 0 76 76" fill="none"><g id="Group"><path id="Vector" d="M75.8009 73.8252L61.5868 46.7045C61.3303 46.2153 60.8236 45.9088 60.2711 45.9089C59.7186 45.9089 59.2118 46.2154 58.9555 46.7048L54.7756 54.6839L39.4832 25.5035V15.7047H49.3688V21.6355C49.3688 22.4558 50.0338 23.1208 50.8541 23.1208H66.5102C67.0637 23.1208 67.5714 22.8131 67.8272 22.3222C68.0831 21.8313 68.0448 21.2389 67.728 20.7851L63.8741 15.2665L67.7277 9.7519C68.0448 9.29812 68.0832 8.70556 67.8273 8.21468C67.5714 7.7238 67.0637 7.41594 66.5102 7.41594H55.5754C55.4984 7.41594 55.4234 7.42366 55.3496 7.43494V1.48527C55.3496 0.665 54.6846 0 53.8644 0H37.9979C37.1776 0 36.5126 0.664852 36.5126 1.48527V25.5035L21.2234 54.6823L17.0445 46.7048C16.7881 46.2154 16.2813 45.9089 15.7289 45.9089C15.1765 45.9089 14.6696 46.2153 14.4131 46.7045L0.199024 73.8252C-0.0421873 74.2857 -0.0254138 74.8388 0.243703 75.2835C0.512821 75.7284 0.994797 76 1.51463 76H74.4853C75.0051 76 75.4871 75.7284 75.7561 75.2835C76.0252 74.8388 76.0421 74.2857 75.8009 73.8252ZM37.998 29.0688L43.761 40.0652C42.3808 40.0891 41.0087 40.5879 39.935 41.5638C38.8863 42.5143 37.1117 42.5137 36.0627 41.5653C35.0023 40.6012 33.6165 40.11 32.2237 40.0893L37.998 29.0688ZM55.3495 14.2196V10.3676C55.4233 10.3789 55.4984 10.3866 55.5753 10.3866H63.6602L60.8448 14.4157C60.4878 14.9264 60.4877 15.6058 60.8445 16.1169L63.6614 20.1505H52.3393V15.7047H53.8642C54.6845 15.7047 55.3495 15.0398 55.3495 14.2196ZM39.4832 2.97038H52.3788V12.7343H39.4832V2.97038ZM15.7284 50.5943L19.5464 57.8828L11.6097 73.0296H3.96993L15.7284 50.5943ZM14.9635 73.0296L30.3738 43.6195C31.435 42.815 33.073 42.8625 34.0673 43.7662C35.1703 44.7637 36.5848 45.2623 37.9989 45.2623C39.4141 45.2623 40.8293 44.7627 41.9315 43.7637C42.9213 42.8637 44.5576 42.8158 45.6219 43.6166L61.0363 73.0296H14.9635ZM64.3901 73.0296L56.4528 57.8841L60.2715 50.5943L72.03 73.0296H64.3901Z" fill="url(#paint0_linear_864_800)"/></g><defs><linearGradient id="paint0_linear_864_800" x1="0.0292969" y1="0" x2="76.0293" y2="75.9413" gradientUnits="userSpaceOnUse"><stop stop-color="#1BB69D"/><stop offset="1" stop-color="#2DB87F"/></linearGradient></defs></svg>