<svg xmlns="http://www.w3.org/2000/svg" width="76" height="76" viewBox="0 0 76 76" fill="none"><g id="Group"><path id="Vector" d="M74.5156 35.2112H71.3521L72.5001 25.1069H74.2044C75.0242 25.1069 75.6887 24.4424 75.6887 23.6226V18.1948C75.6887 14.5471 73.7389 11.2132 70.6791 9.37954C71.1805 8.4956 71.4685 7.47524 71.4685 6.38838C71.4685 3.03399 68.7395 0.305115 65.3852 0.305115C62.031 0.305115 59.302 3.03399 59.302 6.38838C59.302 7.47524 59.5898 8.4956 60.0914 9.37954C57.0318 11.2132 55.0817 14.5472 55.0817 18.195V23.6227C55.0817 24.4425 55.7463 25.1071 56.5661 25.1071H58.2708L59.4221 35.2114H56.2547C55.4349 35.2114 54.7703 35.8759 54.7703 36.6958V43.7402H37.9979C37.1781 43.7402 36.5135 44.4047 36.5135 45.2245V52.2689H19.7411C18.9213 52.2689 18.2568 52.9335 18.2568 53.7533V60.7978H1.48438C0.664555 60.7978 0 61.4624 0 62.2822V74.2107C0 75.0305 0.664555 75.695 1.48438 75.695H19.7411H37.9979H56.2547H74.5156C75.3354 75.695 76 75.0305 76 74.2107V36.6956C76 35.8758 75.3354 35.2112 74.5156 35.2112ZM65.3851 3.27372C67.1025 3.27372 68.4996 4.67096 68.4996 6.38823C68.4996 8.10551 67.1024 9.50275 65.3851 9.50275C63.6678 9.50275 62.2706 8.10551 62.2706 6.38823C62.2706 4.67096 63.6678 3.27372 65.3851 3.27372ZM61.0703 23.4545C60.9848 22.7046 60.3502 22.1382 59.5954 22.1382H58.0503V18.1948C58.0503 15.3622 59.7071 12.7957 62.24 11.5936C63.1584 12.1506 64.2348 12.4716 65.3851 12.4716C66.5353 12.4716 67.6119 12.1506 68.5302 11.5936C71.0631 12.7958 72.7198 15.3622 72.7198 18.1948V22.1382H71.1747C70.4198 22.1382 69.7851 22.7048 69.6999 23.455L68.3642 35.2112H62.4098L61.0703 23.4545ZM2.96875 63.7663H18.2568V72.726H2.96875V63.7663ZM21.2255 55.2375H36.5135V72.7261H21.2255V55.2375ZM39.4823 46.7088H54.7703V72.7261H39.4823V46.7088ZM73.0312 72.7261H57.7391V38.18H73.0312V72.7261Z" fill="url(#paint0_linear_864_792)"/><path id="Vector_2" d="M4.60839 50.7507C4.88345 51.2269 5.3822 51.493 5.8952 51.493C6.14695 51.493 6.40241 51.4289 6.63605 51.294L38.5155 32.887L40.247 35.8819C40.5313 36.3735 41.0727 36.66 41.6373 36.6196C42.2036 36.5794 42.6975 36.2196 42.9093 35.6928L48.5643 21.631C48.7344 21.2079 48.7007 20.7301 48.4727 20.3351C48.2447 19.9401 47.8479 19.6719 47.3965 19.6076L32.388 17.4701C31.8253 17.3897 31.2672 17.6376 30.9491 18.1081C30.631 18.5785 30.609 19.1892 30.8928 19.6811L32.6217 22.6794L0.742188 41.0862C0.401375 41.2831 0.152446 41.6074 0.0506176 41.9876C-0.0513589 42.3678 0.00207858 42.7731 0.198907 43.1139L4.60839 50.7507ZM35.3909 24.5083C36.1006 24.0985 36.3439 23.1912 35.9346 22.4814L34.9875 20.8389L45.1038 22.2796L41.2922 31.7578L40.3434 30.1167C39.9331 29.4072 39.0259 29.1645 38.316 29.5742L6.43714 47.9807L3.51203 42.9148L35.3909 24.5083Z" fill="url(#paint1_linear_864_792)"/></g><defs><linearGradient id="paint0_linear_864_792" x1="0" y1="0.305115" x2="75.3875" y2="76.3026" gradientUnits="userSpaceOnUse"><stop stop-color="#1BB69D"/><stop offset="1" stop-color="#2DB87F"/></linearGradient><linearGradient id="paint1_linear_864_792" x1="0" y1="17.4551" x2="31.9716" y2="63.1719" gradientUnits="userSpaceOnUse"><stop stop-color="#1BB69D"/><stop offset="1" stop-color="#2DB87F"/></linearGradient></defs></svg>